<svg viewBox="0 0 24 26" fill="none" xmlns="http://www.w3.org/2000/svg">
<path d="M23.3503 11.2737C23.4464 11.9197 23.4998 12.5878 23.4998 13.2786C23.4997 16.8081 22.2648 19.7556 20.1501 21.7786H16.8914V19.4651C18.1752 18.5264 19.0346 17.1775 19.3269 15.6018L19.4363 15.01H12.7449V11.2737H23.3503Z" fill="#4285F4" stroke="#C6C8C6"/>
<path d="M5.04254 15.8267C6.16117 18.7353 8.95095 20.8744 12.2447 20.8745C13.834 20.8745 15.2255 20.4895 16.3599 19.8149L19.5601 22.2983C17.6798 23.8397 15.1956 24.7446 12.2447 24.7446C7.69499 24.7446 3.75412 22.1598 1.80231 18.3755V15.8267H5.04254Z" fill="#34A853" stroke="#C6C8C6"/>
<path d="M4.89337 8.00073V10.5955C4.64898 11.3544 4.50959 12.1646 4.50958 12.9998C4.50958 13.7395 4.61851 14.4599 4.81329 15.1423L1.48907 17.7205C0.85557 16.2756 0.499817 14.6776 0.499817 12.9998C0.499831 11.2134 0.903532 9.51765 1.61603 8.00073H4.89337Z" fill="#FBBC05" stroke="#C6C8C6"/>
<path d="M12.2447 1.255C15.2164 1.255 17.7325 2.27703 19.7095 3.96497L16.9039 6.76965C15.5977 5.67894 13.9963 5.12512 12.2447 5.12512C9.06826 5.1252 6.35976 7.11483 5.16754 9.86536L1.94 7.36145C3.93615 3.72047 7.80087 1.25508 12.2447 1.255Z" fill="#EA4335" stroke="#C6C8C6"/>
</svg>
